<svg xmlns="http://www.w3.org/2000/svg" width="178.09" height="107.171" viewBox="80.955 71.415 178.09 107.171">
  <g fill="#41b883" class="icon-text-wrapper icon-svg-group iconsvg">
    <g class="iconsvg-imagesvg rotating" transform="translate(140 71.415)">
      <path fill="none" d="M0 0h60v61.224H0z" class="image-rect" />
      <svg width="60" height="61.224" class="image-svg-svg primary" filter="url(#a)" style="overflow:visible">
        <svg xmlns="http://www.w3.org/2000/svg" enable-background="new 0 0 5 5.06" viewBox="0.05 0.01 4.9 5">
          <path fill="#0C0B0B"
            d="m4.95 1.71-.36-.08L2.98.01l-.35.38L.76.68l.07.36-.78 2.15.35.11 1.51 1.71.26-.25 2.23-.5-.09-.35.64-2.2zM2.77 4.18l.72-.7-.29-.31-1.26 1.22-.75-.85.96.3.13-.41-1.67-.52.38-1.06.2.99.42-.09-.34-1.71.9-.14-.68.73.32.29L2.99.63l.79.79-.97-.23-.1.42 1.7.41-.32 1.09-.26-.97-.41.11.45 1.69-1.1.24z" />
        </svg>
      </svg>
      <defs>
        <filter id="a">
          <feColorMatrix class="icon-fecolormatrix"
            values="0 0 0 0 0.25390625 0 0 0 0 0.71875 0 0 0 0 0.51171875 0 0 0 1 0" />
        </filter>
      </defs>
    </g>
    <path
      d="M80.955 152.45c0 7.92 5.07 11.98 12.26 11.98 3.47 0 6.59-.97 8.68-2.47v-6.8h1.84v-3.27h-11.49v3.27h4.82v4.3c-1.07.42-2.22.63-3.44.63-4.58 0-7.63-2.85-7.63-7.64 0-4.69 2.98-7.54 6.8-7.54 1.29 0 2.47.14 3.54.32l.42 4.09h4.69v-7.29c-2.61-.83-4.9-1.42-8.54-1.42-6.85 0-11.95 4.03-11.95 11.84Zm33.44 11.7v-3.54h-2.29v-3.3c.41-4.44 2.7-6.74 6.18-6.74.31 0 .62.04 1 .07v-4.58c-.27-.04-.55-.04-.79-.04-2.92 0-5 1.5-6.39 3.69v-3.41h-6.98v3.51h2.25v10.8h-2.25v3.54Zm5.62-8.99c0 5.97 3.75 9.27 9.14 9.27 3.22 0 5.48-1.01 7.32-2.57l-1.11-3.72c-1.49 1.22-3.02 2.19-5.21 2.19-2.78 0-4.48-1.35-5.07-3.58h12.22c.04-.52.07-1.56.07-2.01 0-5.1-2.63-8.72-8.33-8.72-5.17 0-9.03 3.3-9.03 9.14Zm4.93-1.22c.39-2.53 2.02-4.1 4.24-4.1 2.88 0 4.24 2.02 4.24 4.1Zm14.31 1.22c0 5.97 3.75 9.27 9.13 9.27 3.23 0 5.49-1.01 7.33-2.57l-1.11-3.72c-1.5 1.22-3.02 2.19-5.21 2.19-2.78 0-4.48-1.35-5.07-3.58h12.22c.04-.52.07-1.56.07-2.01 0-5.1-2.64-8.72-8.33-8.72-5.18 0-9.03 3.3-9.03 9.14Zm4.93-1.22c.38-2.53 2.01-4.1 4.24-4.1 2.88 0 4.23 2.02 4.23 4.1Zm13.75-7.6v3.5h2.26v10.77h-2.26v3.54h9.27v-3.54h-2.29v-7.92c.66-1.53 1.7-2.88 3.37-2.88 2.22 0 3.3 1.56 3.3 4.9v9.44h6.97v-3.54h-2.25v-7.09c0-4.89-2.43-7.53-6.6-7.53-2.08 0-3.65.9-4.79 2.15v-1.8Zm20.35-5.45v7.81h3.78l.28-3.72h4.93v15.07h-2.29v4.1h9.51v-4.1h-2.25v-15.07h4.89l.31 3.72h3.75v-7.81Zm22.84 14.27c0 5.97 3.75 9.27 9.14 9.27 3.23 0 5.48-1.01 7.32-2.57l-1.11-3.72c-1.49 1.22-3.02 2.19-5.21 2.19-2.77 0-4.48-1.35-5.07-3.58h12.23c.03-.52.07-1.56.07-2.01 0-5.1-2.64-8.72-8.34-8.72-5.17 0-9.03 3.3-9.03 9.14Zm4.93-1.22c.39-2.53 2.02-4.1 4.24-4.1 2.88 0 4.24 2.02 4.24 4.1Zm23.34-7.92c-5.24 0-9.03 3.3-9.03 9.14 0 5.97 3.75 9.27 9.1 9.27 2.78 0 5.52-1.01 7.36-2.57l-1.11-3.82c-1.5 1.21-3.47 2.15-5.7 2.15-2.71 0-4.79-1.84-4.79-5.07 0-3.09 2.02-4.93 4.69-5.03.59.03 1.18.1 1.77.28l.31 3.92h4.24v-6.95c-1.46-.72-4.38-1.32-6.84-1.32Zm9.03-6.38v3.5h2.25v17.47h-2.25v3.54h9.27v-3.54h-2.29v-7.92c.65-1.53 1.7-2.88 3.36-2.88 2.23 0 3.3 1.56 3.3 4.9v9.44h6.98v-3.54h-2.26v-7.09c0-4.89-2.43-7.53-6.59-7.53-2.09 0-3.65.9-4.79 2.15v-8.5Z"
      class="tp-name iconsvg-namesvg" data-gra="path-name" />
    <path fill="#35495e"
      d="m141.416 176.725-.6.7c.35.36.76.64 1.23.85.47.21.98.31 1.53.31.42 0 .79-.05 1.12-.17.33-.12.61-.28.84-.48.23-.2.41-.44.53-.71.13-.28.19-.57.19-.88 0-.29-.04-.54-.13-.76-.08-.22-.19-.41-.34-.58-.14-.16-.31-.31-.51-.43s-.42-.23-.64-.33l-1.12-.48c-.16-.06-.31-.13-.46-.21-.16-.08-.3-.16-.42-.26-.13-.1-.23-.22-.31-.35-.08-.13-.11-.3-.11-.49 0-.36.13-.64.4-.84.27-.21.62-.31 1.06-.31.37 0 .7.07.99.2.29.13.56.31.8.54l.54-.64a3.27 3.27 0 0 0-1.02-.71c-.4-.18-.84-.27-1.31-.27-.36 0-.69.06-.99.16-.3.1-.56.25-.78.44-.22.19-.39.41-.52.66-.12.26-.18.54-.18.83 0 .29.05.54.14.76.1.22.22.41.37.57.16.16.33.3.52.41.19.11.38.21.56.29l1.13.49c.19.09.36.17.52.25.16.08.3.17.41.27.12.1.21.22.28.36.07.14.1.31.1.51 0 .39-.14.7-.43.93-.29.24-.69.36-1.21.36-.41 0-.81-.09-1.19-.27-.38-.18-.71-.42-.99-.72Zm9.29 1.86c.5 0 .95-.09 1.36-.28.42-.2.77-.47 1.07-.83.3-.35.53-.78.7-1.29.16-.51.24-1.08.24-1.71 0-.63-.08-1.19-.24-1.69-.17-.5-.4-.92-.7-1.27a2.9 2.9 0 0 0-1.07-.8c-.41-.19-.86-.29-1.36-.29-.49 0-.95.1-1.36.28-.41.18-.77.45-1.06.8-.3.35-.53.77-.69 1.27-.17.5-.25 1.07-.25 1.7 0 .63.08 1.2.25 1.71.16.51.39.94.69 1.29.29.36.65.63 1.06.83.41.19.87.28 1.36.28Zm0-.87c-.35 0-.67-.08-.95-.23-.29-.15-.53-.37-.73-.65-.21-.29-.37-.63-.48-1.02-.11-.4-.17-.85-.17-1.34 0-.49.06-.93.17-1.32.11-.39.27-.73.48-1 .2-.27.44-.48.73-.63.28-.15.6-.22.95-.22s.67.07.96.22c.28.15.52.36.73.63.2.27.36.61.47 1 .11.39.17.83.17 1.32 0 .49-.06.94-.17 1.34-.11.39-.27.73-.47 1.02-.21.28-.45.5-.73.65-.29.15-.61.23-.96.23Zm5.07-7.14v7.87h4.44v-.85h-3.45v-7.02Zm5.44 0v4.62c0 .63.08 1.16.22 1.59.14.44.34.79.59 1.05.26.27.56.46.9.58.35.12.73.17 1.13.17.4 0 .77-.05 1.11-.17.35-.12.64-.31.9-.58.25-.26.45-.61.59-1.05.14-.43.22-.96.22-1.59v-4.62h-.96v4.64c0 .47-.05.87-.15 1.19-.09.32-.23.58-.39.77-.17.19-.37.33-.59.41-.23.09-.47.13-.73.13s-.5-.04-.72-.13c-.23-.08-.42-.22-.59-.41-.16-.19-.29-.45-.39-.77-.09-.32-.14-.72-.14-1.19v-4.64Zm9.41.84v7.03h1.01v-7.03h2.38v-.84h-5.76v.84Zm4.8-.84v7.87h1v-7.87Zm6.06 8.01c.5 0 .95-.09 1.36-.28.42-.2.77-.47 1.07-.83.3-.35.53-.78.7-1.29.16-.51.24-1.08.24-1.71 0-.63-.08-1.19-.24-1.69-.17-.5-.4-.92-.7-1.27a2.9 2.9 0 0 0-1.07-.8c-.41-.19-.86-.29-1.36-.29-.49 0-.95.1-1.36.28-.41.18-.77.45-1.06.8-.3.35-.53.77-.69 1.27-.17.5-.25 1.07-.25 1.7 0 .63.08 1.2.25 1.71.16.51.39.94.69 1.29.29.36.65.63 1.06.83.41.19.87.28 1.36.28Zm0-.87c-.35 0-.67-.08-.95-.23-.29-.15-.53-.37-.73-.65-.21-.29-.37-.63-.48-1.02-.11-.4-.17-.85-.17-1.34 0-.49.06-.93.17-1.32.11-.39.27-.73.48-1 .2-.27.44-.48.73-.63.28-.15.6-.22.95-.22s.67.07.96.22c.28.15.52.36.73.63.2.27.36.61.47 1 .11.39.17.83.17 1.32 0 .49-.06.94-.17 1.34-.11.39-.27.73-.47 1.02-.21.28-.45.5-.73.65-.29.15-.61.23-.96.23Zm5.07-7.14v7.87h.94v-4.12c0-.41-.01-.83-.04-1.24l-.09-1.22h.05l.85 1.62 2.86 4.96h1.03v-7.87h-.95v4.07c0 .41.02.83.04 1.26.03.43.06.84.08 1.24h-.05l-.85-1.63-2.84-4.94Zm7.78 6.15-.6.7c.35.36.76.64 1.23.85.47.21.98.31 1.53.31.42 0 .79-.05 1.12-.17.33-.12.61-.28.84-.48.23-.2.41-.44.53-.71.13-.28.19-.57.19-.88 0-.29-.04-.54-.13-.76-.08-.22-.19-.41-.34-.58-.14-.16-.31-.31-.51-.43s-.42-.23-.64-.33l-1.12-.48c-.16-.06-.31-.13-.46-.21-.16-.08-.3-.16-.42-.26-.13-.1-.23-.22-.31-.35-.08-.13-.11-.3-.11-.49 0-.36.13-.64.4-.84.27-.21.62-.31 1.06-.31.37 0 .7.07.99.2.29.13.56.31.8.54l.54-.64a3.27 3.27 0 0 0-1.02-.71c-.4-.18-.84-.27-1.31-.27-.36 0-.69.06-.99.16-.3.1-.56.25-.78.44-.22.19-.39.41-.52.66-.12.26-.18.54-.18.83 0 .29.05.54.14.76.1.22.22.41.37.57.16.16.33.3.52.41.19.11.38.21.56.29l1.13.49c.19.09.36.17.52.25.16.08.3.17.41.27.12.1.21.22.28.36.07.14.1.31.1.51 0 .39-.14.7-.43.93-.29.24-.69.36-1.21.36-.41 0-.81-.09-1.19-.27-.38-.18-.71-.42-.99-.72Z"
      class="tp-slogan iconsvg-slogansvg" data-gra="path-slogan" />
  </g>
</svg>