<?xml version="1.0" encoding="utf-8"?>
<svg viewBox="140 71.4147 60 61.2245" width="60" height="61.2245" xmlns="http://www.w3.org/2000/svg">
  <path fill="#41b883"
    d="M4.95,1.71L4.59,1.63L2.98,0.01L2.63,0.39L0.76,0.68l0.07,0.36l0,0L0.05,3.19L0.4,3.3l0,0l1.51,1.71 l0.26-0.25l0,0l2.23-0.5L4.31,3.91L4.95,1.71z M2.77,4.18l0.72-0.7L3.2,3.17L1.94,4.39L1.19,3.54l0.96,0.3l0.13-0.41L0.61,2.91 l0.38-1.06l0.2,0.99l0.42-0.09L1.27,1.04l0.9-0.14L1.49,1.63l0.32,0.29l1.18-1.29l0.79,0.79L2.81,1.19l-0.1,0.42l1.7,0.41L4.09,3.11 L3.83,2.14L3.42,2.25l0.45,1.69L2.77,4.18z"
    transform="matrix(12.244898223876955, 0, 0, 12.244898223876955, 139.38775667548185, 71.29230014319809)" />
</svg>