<?xml version="1.0" standalone="no"?>
<!DOCTYPE svg PUBLIC "-//W3C//DTD SVG 20010904//EN"
 "http://www.w3.org/TR/2001/REC-SVG-20010904/DTD/svg10.dtd">
<svg version="1.0" xmlns="http://www.w3.org/2000/svg"
 width="976.000000pt" height="976.000000pt" viewBox="0 0 976.000000 976.000000"
 preserveAspectRatio="xMidYMid meet">
<metadata>
Created by potrace 1.14, written by Peter Selinger 2001-2017
</metadata>
<g transform="translate(0.000000,976.000000) scale(0.100000,-0.100000)"
fill="#000000" stroke="none">
<path d="M5786 9726 c-17 -17 -71 -76 -121 -130 -49 -55 -101 -111 -115 -126
-14 -15 -68 -73 -120 -130 -86 -93 -121 -132 -256 -278 l-40 -43 -125 -20
c-176 -28 -181 -29 -214 -33 -30 -4 -72 -11 -130 -21 -16 -3 -48 -8 -70 -10
-22 -3 -51 -7 -65 -10 -14 -3 -41 -8 -60 -11 -19 -2 -46 -7 -60 -9 -14 -3 -47
-7 -75 -11 -27 -3 -52 -7 -55 -9 -3 -2 -27 -6 -55 -9 -66 -9 -105 -14 -135
-20 -14 -3 -43 -7 -65 -11 -22 -3 -53 -8 -70 -10 -16 -3 -46 -7 -65 -10 -19
-2 -35 -5 -35 -6 0 -1 -11 -3 -25 -4 -14 -1 -41 -5 -60 -8 -19 -4 -51 -9 -70
-11 -80 -12 -153 -23 -185 -30 -11 -2 -45 -7 -75 -11 -30 -4 -64 -9 -75 -11
-11 -2 -38 -6 -60 -9 -22 -3 -51 -7 -65 -10 -14 -3 -43 -7 -65 -10 -22 -3 -51
-7 -65 -10 -38 -8 -70 -13 -120 -19 -25 -3 -54 -8 -65 -10 -11 -2 -42 -7 -70
-11 -56 -8 -72 -11 -130 -20 -22 -3 -83 -13 -135 -22 -52 -8 -108 -17 -125
-18 -16 -2 -30 -4 -30 -5 0 -3 -42 -9 -94 -15 -29 -3 -56 -7 -60 -9 -3 -2 -28
-7 -56 -10 -27 -3 -60 -7 -72 -10 -28 -6 -112 -19 -143 -22 -14 -1 -25 -3 -25
-4 0 -1 -11 -3 -25 -5 -14 -2 -42 -6 -62 -9 -21 -3 -54 -8 -73 -11 -51 -7
-104 -16 -129 -21 -11 -2 -39 -7 -61 -10 -51 -6 -93 -13 -127 -20 -23 -5 -26
-9 -19 -27 5 -12 12 -44 16 -72 5 -27 9 -52 10 -55 2 -10 18 -95 20 -110 1 -8
5 -26 8 -40 4 -14 9 -38 12 -55 21 -116 38 -203 48 -250 21 -93 17 -116 -40
-255 -3 -8 -7 -20 -8 -27 -4 -14 -73 -201 -85 -228 -8 -18 -18 -48 -26 -80 -7
-22 -107 -292 -120 -322 -8 -17 -14 -35 -14 -39 0 -11 -129 -364 -141 -386 -5
-10 -9 -22 -9 -27 0 -5 -5 -22 -12 -38 -6 -15 -12 -30 -13 -33 0 -3 -8 -27
-18 -55 -9 -27 -17 -54 -16 -59 0 -5 -3 -12 -8 -15 -6 -5 -46 -106 -57 -146
-2 -5 -6 -17 -9 -25 -3 -8 -36 -98 -72 -200 -37 -102 -75 -207 -85 -235 -41
-108 -122 -331 -125 -345 -2 -8 -32 -89 -66 -180 -33 -91 -62 -169 -63 -175
-2 -5 -6 -17 -9 -25 -4 -8 -25 -67 -48 -130 -23 -63 -57 -158 -76 -210 -19
-52 -36 -102 -38 -112 -2 -9 -11 -30 -19 -47 -9 -17 -16 -33 -15 -36 0 -3 -11
-37 -26 -75 -15 -39 -28 -76 -29 -83 -2 -6 -8 -25 -15 -42 -6 -16 -16 -41 -21
-55 -5 -14 -25 -70 -46 -125 -20 -55 -37 -104 -39 -110 -2 -10 -20 -58 -32
-85 -4 -8 -7 -20 -8 -26 0 -6 -5 -22 -12 -35 -6 -13 -18 -46 -28 -74 -16 -49
-20 -58 -44 -119 -7 -16 -10 -30 -9 -31 2 -2 41 -15 88 -30 47 -15 103 -33
125 -40 22 -7 65 -21 95 -30 30 -9 118 -37 195 -61 77 -25 148 -47 157 -49 16
-3 50 -35 92 -87 30 -36 139 -160 161 -183 11 -12 45 -50 75 -85 76 -87 77
-88 150 -171 61 -69 151 -169 174 -196 6 -6 29 -32 51 -58 22 -26 57 -64 77
-86 21 -21 36 -39 33 -39 -2 0 11 -15 28 -34 46 -48 93 -101 167 -186 36 -41
70 -80 75 -86 6 -6 33 -37 60 -68 28 -32 64 -73 80 -91 17 -18 50 -56 75 -85
25 -28 59 -67 75 -84 17 -18 57 -64 90 -101 33 -38 65 -73 70 -79 6 -6 37 -42
70 -81 33 -38 67 -76 75 -85 8 -9 42 -47 75 -84 33 -38 65 -74 70 -80 32 -36
97 -110 145 -165 30 -35 70 -79 87 -97 18 -19 33 -36 33 -39 0 -3 14 -18 30
-33 17 -16 30 -35 30 -41 0 -7 4 -9 10 -6 6 3 10 2 10 -2 0 -5 12 -22 28 -39
15 -17 54 -61 87 -98 32 -37 68 -78 80 -90 24 -28 71 -82 140 -160 28 -32 66
-75 85 -96 19 -21 58 -64 85 -96 28 -32 70 -81 95 -109 25 -28 74 -84 109
-123 35 -40 69 -80 76 -88 12 -16 22 -8 278 240 262 253 235 231 312 249 39 9
81 18 95 21 14 2 43 9 65 14 22 6 51 13 65 16 14 3 117 26 230 51 113 26 213
47 223 48 9 1 17 4 17 7 0 3 8 6 18 6 27 2 299 61 311 69 3 1 24 6 46 9 22 4
48 9 57 12 17 5 50 13 83 19 11 2 31 6 45 9 59 13 76 17 100 22 14 3 43 10 65
16 22 6 43 11 47 10 3 -1 31 5 61 13 30 8 67 16 81 19 14 3 34 7 44 10 9 3 28
7 42 10 14 3 34 7 45 10 44 10 222 48 244 53 14 2 28 6 32 9 4 2 27 7 51 10
24 4 51 10 61 15 9 6 17 8 17 5 0 -3 15 0 33 5 17 5 43 11 57 14 52 10 68 14
105 24 21 6 42 8 47 5 4 -3 8 -1 8 4 0 5 6 9 13 10 49 4 74 9 85 15 6 5 12 5
12 1 0 -3 6 -2 12 3 7 6 23 9 36 8 12 -1 22 1 22 5 0 3 8 6 18 7 20 1 27 3
226 49 83 19 162 37 176 39 14 2 25 4 25 5 0 2 5 3 60 15 17 3 41 8 55 11 14
3 32 7 40 9 8 2 15 4 15 5 0 1 11 3 25 5 14 2 34 6 45 8 52 13 155 37 176 41
13 2 53 11 89 20 36 8 76 17 90 20 14 2 32 7 40 10 8 3 29 7 45 10 17 3 50 10
75 16 25 7 54 13 65 15 41 6 430 96 434 100 4 5 -8 65 -34 165 -10 36 -18 72
-20 80 -1 8 -5 22 -8 30 -4 8 -8 26 -9 40 -2 14 -6 27 -10 30 -3 3 -9 21 -12
40 -4 19 -8 40 -10 45 -1 6 -9 38 -16 73 -8 34 -17 62 -20 62 -4 0 -7 6 -7 13
-1 19 -13 80 -18 87 -3 4 5 40 16 81 12 41 22 81 24 89 3 13 192 661 245 840
27 93 54 184 56 193 1 4 3 8 4 10 1 1 4 11 6 22 1 11 25 94 52 185 28 90 48
168 46 172 -3 5 0 8 7 8 7 0 10 3 7 6 -4 3 2 31 12 62 26 81 60 194 64 217 2
11 12 42 21 69 9 26 18 58 21 69 2 12 13 51 24 87 11 36 22 76 25 88 2 12 7
28 11 34 5 7 9 19 9 28 1 8 16 65 34 125 19 61 34 115 36 120 1 6 5 17 8 25 4
8 8 24 10 35 1 11 6 25 9 31 4 6 9 21 11 35 3 13 17 65 32 114 15 50 30 104
35 120 5 17 18 64 30 105 12 41 23 82 25 90 2 8 8 29 15 45 6 17 11 30 10 30
-1 0 1 7 3 15 3 8 13 44 22 80 24 88 44 157 61 205 14 44 64 220 69 247 2 9 9
26 15 37 6 12 8 21 5 21 -3 0 1 16 9 35 9 20 15 38 15 40 -1 16 15 72 23 83 6
6 8 12 4 12 -3 0 0 16 8 35 8 19 13 35 11 35 -3 0 0 12 6 28 6 15 13 36 15 47
2 11 19 72 38 135 19 63 32 118 30 122 -3 4 -18 8 -33 8 -15 0 -31 3 -35 7 -3
4 -14 7 -24 8 -13 2 -292 62 -417 91 -11 3 -29 7 -40 9 -32 7 -69 16 -85 20
-8 2 -24 4 -35 4 -19 1 -228 210 -2125 2121 -443 446 -858 864 -924 930 l-119
119 -31 -33z m444 -1570 c214 -215 390 -393 390 -398 0 -4 6 -8 14 -8 8 0 16
-4 18 -10 2 -5 165 -172 363 -370 245 -246 351 -358 335 -355 -24 5 -37 8 -86
19 -11 2 -49 11 -85 20 -35 9 -73 18 -84 21 -26 6 -87 21 -100 25 -5 1 -14 4
-20 5 -18 6 -120 29 -130 30 -24 2 -91 18 -100 23 -5 3 -18 7 -30 8 -17 2
-310 71 -385 91 -14 3 -31 7 -39 9 -7 1 -35 8 -61 14 -26 6 -55 12 -64 14 -8
1 -18 5 -22 8 -3 4 -12 4 -20 1 -8 -3 -14 0 -14 7 0 6 -5 8 -10 5 -6 -4 -19
-3 -28 1 -9 4 -24 8 -32 9 -8 2 -24 5 -35 8 -155 38 -334 80 -350 83 -11 2
-38 8 -60 14 -22 6 -56 14 -77 16 -34 5 -36 4 -43 -28 -8 -37 -62 -269 -72
-308 -4 -14 -8 -29 -9 -35 -1 -5 -3 -12 -4 -15 -2 -6 -6 -24 -14 -60 -4 -14
-8 -34 -11 -45 -2 -11 -16 -69 -30 -130 -15 -60 -29 -121 -31 -135 -3 -14 -7
-32 -9 -40 -4 -12 17 -21 98 -40 124 -29 115 -27 154 -34 18 -3 44 -11 59 -16
15 -6 29 -8 32 -6 2 3 14 0 26 -6 11 -6 38 -13 59 -15 22 -2 44 -6 51 -10 6
-4 16 -8 21 -9 6 -1 39 -9 75 -18 88 -20 202 -47 220 -51 8 -1 35 -9 60 -16
25 -7 51 -12 58 -10 6 1 12 -3 12 -9 0 -6 4 -9 9 -6 4 3 52 -6 106 -19 54 -14
108 -27 119 -29 21 -5 158 -38 231 -57 22 -5 51 -12 65 -15 14 -3 43 -10 65
-16 22 -5 49 -12 60 -14 35 -6 188 -45 241 -60 28 -8 55 -14 60 -13 5 1 16 0
24 -4 21 -7 100 -27 130 -32 14 -2 36 -8 50 -13 14 -5 28 -10 33 -10 12 -1 74
-14 147 -33 25 -6 53 -12 63 -14 10 -2 27 -7 37 -10 10 -3 28 -8 39 -10 27 -6
46 -11 101 -24 43 -11 61 -15 113 -26 12 -2 47 -11 77 -20 30 -9 66 -18 80
-20 14 -2 40 -9 58 -14 17 -5 32 -8 32 -6 0 3 11 0 25 -5 14 -5 37 -12 50 -15
14 -3 37 -8 53 -11 15 -4 35 -7 45 -8 9 0 17 -3 17 -7 0 -4 17 -10 38 -13 20
-3 46 -7 57 -9 26 -5 106 -26 125 -34 8 -4 20 -7 25 -8 6 0 8 -7 6 -15 -2 -8
-4 -19 -6 -25 -1 -5 -5 -17 -8 -25 -3 -8 -12 -35 -18 -60 -7 -25 -13 -47 -14
-50 -1 -3 -7 -25 -14 -50 -6 -25 -15 -52 -18 -60 -3 -8 -7 -19 -9 -25 -8 -28
-35 -122 -39 -135 -19 -73 -47 -168 -52 -180 -3 -8 -7 -19 -8 -25 -2 -5 -19
-66 -40 -135 -51 -175 -76 -262 -80 -280 -2 -8 -8 -26 -13 -40 -5 -14 -11 -29
-12 -35 -1 -5 -4 -14 -6 -20 -11 -34 -56 -193 -59 -205 -1 -8 -5 -22 -8 -30
-5 -12 -21 -69 -33 -112 -1 -5 -3 -10 -4 -13 -1 -3 -3 -8 -4 -12 -4 -17 -30
-103 -63 -212 -19 -62 -35 -122 -36 -132 -1 -11 -4 -19 -7 -19 -3 0 -7 -12 -8
-27 -1 -15 -5 -29 -10 -32 -4 -3 -8 -19 -10 -36 -2 -16 -7 -32 -10 -35 -7 -5
-10 -14 -16 -52 -6 -43 -22 -27 -40 39 -18 72 -26 110 -28 131 -1 6 -6 12 -11
12 -6 0 -8 2 -5 6 3 3 2 19 -3 37 -6 25 -50 190 -74 277 -3 8 -9 35 -16 60 -6
25 -13 52 -17 60 -3 8 -7 22 -8 30 -5 24 -12 55 -14 55 -1 0 -3 7 -5 15 -13
52 -53 204 -80 300 -15 52 -28 102 -30 110 -2 8 -13 51 -25 95 -12 44 -35 130
-51 190 -16 61 -45 169 -65 240 -20 72 -37 138 -38 148 -4 26 -22 41 -43 32
-10 -4 -25 -9 -33 -10 -8 -2 -40 -10 -70 -19 -63 -17 -238 -65 -260 -70 -8 -2
-42 -11 -75 -20 -33 -9 -71 -19 -84 -22 -13 -3 -32 -9 -43 -15 -10 -5 -18 -8
-18 -5 0 3 -15 0 -32 -5 -18 -6 -40 -12 -48 -14 -70 -15 -100 -28 -100 -41 0
-8 9 -47 21 -87 27 -96 30 -109 33 -127 1 -9 5 -20 8 -25 3 -6 9 -23 12 -40
12 -57 29 -121 106 -400 28 -102 59 -223 66 -255 8 -35 10 -43 16 -60 3 -8 15
-51 27 -95 12 -44 40 -149 62 -234 22 -84 42 -161 44 -170 2 -9 31 -117 65
-241 34 -124 63 -236 66 -250 3 -14 8 -34 11 -45 4 -11 8 -23 9 -27 1 -5 2 -9
4 -10 1 -2 3 -12 5 -23 2 -11 18 -72 35 -135 27 -99 45 -164 54 -205 2 -5 9
-30 16 -55 7 -25 14 -52 16 -60 2 -8 12 -50 24 -92 11 -43 29 -111 39 -150 11
-40 24 -86 31 -103 6 -16 11 -31 10 -33 -3 -8 14 -79 23 -89 5 -7 7 -13 4 -13
-2 0 4 -33 15 -72 37 -136 47 -183 40 -189 -6 -5 -73 -21 -147 -34 -11 -2 -20
-4 -20 -5 0 -1 -8 -3 -19 -5 -10 -2 -39 -8 -65 -14 -25 -6 -57 -13 -71 -15
-14 -3 -26 -5 -27 -7 -4 -2 -11 -4 -68 -14 -53 -9 -64 -11 -67 -15 -2 -1 -11
-3 -22 -5 -10 -2 -39 -8 -65 -14 -25 -6 -57 -13 -71 -15 -14 -3 -36 -8 -50
-11 -14 -3 -36 -8 -50 -10 -14 -2 -45 -10 -70 -16 -25 -6 -52 -11 -60 -12 -8
0 -19 -3 -25 -7 -5 -4 -18 -6 -27 -5 -10 2 -18 -1 -18 -6 0 -6 -3 -8 -8 -5 -4
2 -66 -9 -137 -26 -72 -16 -141 -31 -155 -34 -26 -4 -40 -7 -80 -17 -26 -7
-65 -15 -115 -23 -16 -3 -37 -7 -45 -10 -8 -3 -26 -8 -40 -10 -14 -3 -65 -14
-115 -25 -49 -12 -101 -23 -115 -25 -14 -3 -53 -11 -88 -19 -34 -8 -76 -17
-94 -20 -17 -3 -35 -8 -38 -10 -4 -3 -25 -7 -46 -10 -22 -4 -54 -10 -71 -15
-18 -5 -33 -6 -33 -3 0 5 82 86 485 478 51 50 204 198 340 330 135 132 318
310 406 395 l160 156 -68 73 c-37 41 -81 88 -98 106 -16 17 -84 89 -150 160
-66 71 -149 160 -185 198 l-65 68 -137 -133 c-75 -73 -203 -197 -285 -276 -81
-79 -246 -238 -367 -355 -120 -117 -255 -248 -301 -292 -143 -139 -575 -556
-666 -645 -48 -47 -179 -174 -291 -282 -111 -108 -250 -242 -306 -297 l-104
-100 -36 39 c-21 22 -47 52 -59 67 -12 15 -39 47 -60 69 -21 23 -63 70 -93
105 -30 34 -64 73 -75 85 -11 12 -45 50 -75 85 -90 104 -223 254 -229 259 -3
3 -33 37 -66 75 -33 39 -76 88 -97 110 -20 22 -46 51 -58 65 -11 14 -35 41
-53 61 -60 66 -145 164 -167 189 -46 55 -127 146 -158 178 -18 19 -39 43 -46
54 -8 11 -42 50 -75 87 -80 88 -101 113 -101 121 0 4 66 -14 148 -40 307 -99
408 -130 420 -130 7 0 20 -4 30 -10 9 -5 71 -25 137 -45 66 -20 160 -50 209
-66 49 -16 96 -31 105 -32 9 -1 21 -5 26 -8 8 -5 29 -12 75 -24 3 0 16 -5 30
-9 269 -85 346 -109 355 -111 5 -1 17 -5 25 -8 12 -5 183 -58 200 -62 3 -1 24
-7 48 -14 50 -14 58 -11 66 26 6 28 54 183 86 283 10 30 35 107 55 170 20 63
39 122 42 130 3 8 7 22 8 30 1 8 12 43 25 78 12 35 20 64 19 66 -13 8 -207 66
-221 66 -10 0 -18 5 -18 10 0 6 -6 10 -12 9 -7 -1 -20 0 -28 3 -45 16 -279 88
-305 94 -16 4 -34 9 -40 13 -5 3 -15 6 -20 7 -6 1 -39 11 -75 23 -36 12 -146
46 -245 77 -99 31 -206 64 -237 74 -32 10 -58 16 -58 13 0 -3 -6 0 -14 6 -8 7
-26 14 -41 17 -14 2 -45 11 -68 18 -66 22 -271 87 -282 90 -51 14 -71 20 -80
25 -5 3 -14 6 -20 6 -5 1 -17 4 -25 7 -8 4 -62 21 -120 38 -58 17 -112 34
-120 37 -20 8 -21 8 -55 18 -16 4 -34 10 -40 14 -5 3 -14 6 -20 6 -5 1 -30 7
-55 15 -25 7 -48 14 -52 16 -5 1 -10 3 -13 4 -3 1 -9 4 -15 5 -5 1 -11 3 -12
5 -2 1 -10 3 -18 5 -8 1 -73 21 -145 45 -71 23 -137 43 -145 45 -8 2 -60 18
-115 35 -111 35 -168 53 -175 55 -3 1 -39 12 -80 25 -41 13 -78 25 -82 26 -5
1 -9 2 -10 4 -2 1 -10 3 -18 5 -8 1 -37 10 -65 20 -27 9 -54 18 -60 19 -52 11
-53 13 -35 64 9 26 20 54 23 62 8 19 99 277 138 390 16 47 33 94 38 105 6 11
17 40 25 65 8 25 31 90 51 145 48 132 136 377 139 390 2 6 6 17 9 25 4 8 70
193 148 410 77 217 144 401 148 409 5 8 11 -2 16 -30 4 -24 7 -47 7 -51 -1 -4
2 -18 7 -31 5 -13 12 -41 15 -63 4 -21 8 -46 11 -54 2 -8 6 -32 10 -54 3 -21
7 -41 9 -45 2 -3 7 -22 10 -41 12 -69 17 -96 31 -160 8 -36 17 -81 20 -100 3
-19 8 -42 10 -50 2 -8 7 -28 10 -45 2 -16 7 -41 10 -55 11 -48 26 -125 31
-150 2 -14 8 -45 14 -70 5 -25 12 -63 16 -85 4 -22 8 -44 10 -50 4 -17 26
-119 29 -140 2 -11 11 -53 19 -93 9 -40 18 -88 20 -107 3 -19 7 -39 10 -44 4
-5 8 -22 10 -38 7 -48 24 -136 35 -186 10 -41 16 -73 25 -135 6 -37 29 -36
237 12 35 9 65 13 68 11 2 -3 9 -1 15 4 6 5 27 11 46 14 41 7 69 12 154 32 33
8 72 16 86 18 14 3 71 15 127 28 95 21 101 24 93 44 -4 12 -9 37 -11 56 -2 19
-8 40 -13 48 -6 8 -9 16 -8 18 2 2 1 22 -3 46 -8 48 -7 39 -34 177 -12 58 -23
114 -25 125 -2 11 -16 76 -30 145 -14 69 -27 139 -30 155 -3 17 -10 55 -16 85
-6 30 -13 66 -16 80 -3 14 -7 33 -10 43 -3 10 -7 30 -9 45 -2 15 -11 61 -20
102 -8 41 -18 91 -20 110 -3 19 -8 43 -11 52 -3 9 -7 27 -9 40 -3 13 -10 48
-16 78 -7 30 -13 64 -14 75 -2 11 -6 31 -9 45 -3 14 -9 39 -11 55 -3 17 -8 37
-10 45 -3 8 -7 31 -9 50 -3 19 -7 42 -10 50 -3 8 -12 51 -20 95 -8 44 -17 94
-21 110 -14 71 -25 132 -29 155 -3 14 -5 25 -6 25 -4 0 -23 106 -24 133 -1 12
-3 22 -6 22 -3 0 -6 8 -7 18 0 9 -8 53 -17 97 -9 44 -18 91 -21 105 -8 42 -19
95 -20 100 -1 3 -5 23 -9 45 -4 22 -16 83 -27 135 -22 110 -28 144 -35 185 -3
17 -7 37 -10 45 -3 8 -8 33 -10 55 -3 22 -8 47 -11 55 -8 20 -10 28 -18 80 -3
25 -10 63 -15 85 -5 22 -8 40 -7 42 3 3 52 12 107 19 24 3 54 8 65 10 11 1 52
8 90 14 39 6 84 13 100 16 17 2 41 6 55 9 34 7 120 18 148 19 12 1 22 3 22 7
0 3 10 6 23 6 22 1 57 6 130 17 20 3 52 8 70 11 17 2 43 7 56 9 12 3 44 8 69
11 26 3 54 7 62 10 8 2 35 6 60 9 25 3 56 8 70 11 13 2 42 7 65 10 22 3 51 8
65 11 33 6 98 15 135 19 17 2 30 4 30 5 0 2 31 7 85 14 25 3 56 8 70 11 14 3
43 8 65 10 22 2 56 6 76 9 l35 6 -75 -79 c-42 -44 -112 -119 -156 -166 -44
-48 -98 -106 -120 -130 -22 -23 -85 -91 -140 -150 -55 -59 -118 -127 -140
-150 -22 -24 -80 -87 -130 -140 -49 -54 -103 -112 -120 -129 -39 -42 -244
-262 -281 -302 -16 -17 -59 -64 -96 -103 l-68 -72 62 -57 c94 -87 122 -112
131 -112 4 0 7 -7 7 -15 0 -8 4 -15 9 -15 7 0 32 -21 150 -129 14 -12 62 -55
105 -95 44 -39 98 -88 119 -108 l40 -37 26 28 c14 16 60 65 101 111 41 45 91
99 110 120 71 77 189 207 241 264 30 32 65 71 79 86 14 15 63 69 110 120 47
51 99 108 115 126 17 17 59 64 95 104 36 40 85 94 110 120 25 26 63 67 84 91
34 39 75 84 268 293 26 28 56 62 67 75 35 40 194 213 234 253 20 21 35 38 33
38 -2 0 15 19 38 43 23 24 79 85 126 136 47 52 96 106 110 121 14 15 61 67
105 115 44 49 94 103 110 120 17 18 55 59 85 93 30 33 56 60 57 59 1 -1 178
-177 393 -391z"/>
</g>
</svg>
